<?xml version="1.0" encoding="UTF-8" standalone="no"?>
<!DOCTYPE svg PUBLIC "-//W3C//DTD SVG 1.1//EN" "http://www.w3.org/Graphics/SVG/1.1/DTD/svg11.dtd">
<svg width="100%" height="100%" viewBox="0 0 21 21" version="1.1" xmlns="http://www.w3.org/2000/svg" xmlns:xlink="http://www.w3.org/1999/xlink" xml:space="preserve" xmlns:serif="http://www.serif.com/" style="fill-rule:evenodd;clip-rule:evenodd;stroke-linecap:round;stroke-linejoin:round;stroke-miterlimit:1.5;">
    <g transform="matrix(1,0,0,1,-1.583333,-1.583333)">
        <g transform="matrix(0.057543,0,0,0.062791,-7.474867,-18.537325)">
            <path d="M216.191,395.103L280.782,327.076L390.037,327.763L404.467,344.254" style="fill:none;stroke:#0889d9;stroke-width:13.84px;"/>
        </g>
        <g transform="matrix(0.057543,0,0,0.062791,-7.474867,-18.537325)">
            <path d="M216.191,361.089L166.03,412.281L164.656,492.676L191.454,519.474" style="fill:none;stroke:#0889d9;stroke-width:13.84px;"/>
        </g>
        <g transform="matrix(0.057543,0,0,0.062791,-7.474867,-18.537325)">
            <path d="M188.156,429.199L188.156,482.112L204.762,497.592L262.741,497.592" style="fill:none;stroke:#0889d9;stroke-width:13.84px;"/>
        </g>
        <g transform="matrix(0.057543,0,0,0.062791,-7.474867,-18.537325)">
            <path d="M216.191,522.641L310.329,521.515L322.972,535.306" style="fill:none;stroke:#0889d9;stroke-width:13.84px;"/>
        </g>
        <g transform="matrix(0.057543,0,0,0.062791,-7.474867,-18.537325)">
            <path d="M297.641,380.789L259.363,381.634L213.205,426.947L213.205,470.407" style="fill:none;stroke:#0889d9;stroke-width:13.84px;"/>
        </g>
        <g transform="matrix(0.057543,0,0,0.062791,-7.474867,-18.537325)">
            <path d="M236.003,476.483L281.035,476.201L301.581,497.592" style="fill:none;stroke:#0889d9;stroke-width:13.84px;"/>
        </g>
        <g transform="matrix(0.057543,0,0,0.062791,-7.474867,-18.537325)">
            <path d="M240.225,433.984L262.741,455.374L308.055,456.218" style="fill:none;stroke:#0889d9;stroke-width:13.84px;"/>
        </g>
        <g transform="matrix(0.057543,0,0,0.062791,-7.474867,-18.537325)">
            <path d="M274.14,433.984L308.055,433.984" style="fill:none;stroke:#0889d9;stroke-width:13.84px;"/>
        </g>
        <g transform="matrix(0.057543,0,0,0.062791,-7.474867,-18.537325)">
            <path d="M274.14,413.156L308.055,412.593" style="fill:none;stroke:#0889d9;stroke-width:13.84px;"/>
        </g>
        <g transform="matrix(0.057543,0,0,0.062791,-7.474867,-18.537325)">
            <path d="M322.69,470.407L322.972,497.592" style="fill:none;stroke:#0889d9;stroke-width:13.84px;"/>
        </g>
        <g transform="matrix(0.057543,0,0,0.062791,-7.474867,-18.537325)">
            <path d="M284.045,357.713L302.076,357.713L323.35,378.987L323.35,396.413" style="fill:none;stroke:#0889d9;stroke-width:13.84px;"/>
        </g>
        <g transform="matrix(0.057543,0,0,0.062791,-7.474867,-18.537325)">
            <path d="M322.69,348.478L344.046,369.834L344.733,396.413" style="fill:none;stroke:#0889d9;stroke-width:13.84px;"/>
        </g>
        <g transform="matrix(0.057543,0,0,0.062791,-7.474867,-18.537325)">
            <path d="M366.282,357.713L366.282,396.413" style="fill:none;stroke:#0889d9;stroke-width:13.84px;"/>
        </g>
        <g transform="matrix(0.057543,0,0,0.062791,-7.474867,-18.537325)">
            <path d="M344.733,470.407L344.733,553.08L377.949,586.297L377.949,604.973" style="fill:none;stroke:#0889d9;stroke-width:13.84px;"/>
        </g>
        <g transform="matrix(0.057543,0,0,0.062791,-7.474867,-18.537325)">
            <path d="M366.282,544.285L399.058,577.062L399.058,640.594" style="fill:none;stroke:#0889d9;stroke-width:13.84px;"/>
        </g>
        <g transform="matrix(0.057543,0,0,0.062791,-7.474867,-18.537325)">
            <path d="M366.282,470.407L366.282,512L398.929,544.648" style="fill:none;stroke:#0889d9;stroke-width:13.84px;"/>
        </g>
        <g transform="matrix(0.057543,0,0,0.062791,-7.474867,-18.537325)">
            <path d="M386.539,485.796L399.058,500.308L422.16,500.748" style="fill:none;stroke:#0889d9;stroke-width:13.84px;"/>
        </g>
        <g transform="matrix(0.057543,0,0,0.062791,-7.474867,-18.537325)">
            <path d="M382.606,455.892L404.349,455.892" style="fill:none;stroke:#0889d9;stroke-width:13.84px;"/>
        </g>
        <g transform="matrix(0.057543,0,0,0.062791,-7.474867,-18.537325)">
            <path d="M382.606,434.343L414.684,434.343L441.51,461.169L441.51,479.639" style="fill:none;stroke:#0889d9;stroke-width:13.84px;"/>
        </g>
        <g transform="matrix(0.057543,0,0,0.062791,-7.474867,-18.537325)">
            <path d="M382.606,412.794L422.16,412.794L444.808,435.442" style="fill:none;stroke:#0889d9;stroke-width:13.84px;"/>
        </g>
        <g transform="matrix(0.057543,0,0,0.062791,-7.474867,-18.537325)">
            <path d="M394.995,390.445L427.238,390.445" style="fill:none;stroke:#0889d9;stroke-width:13.84px;"/>
        </g>
        <g transform="matrix(0.057543,0,0,0.062791,-7.474867,-18.537325)">
            <path d="M393.477,368.968L436.165,368.968L468.708,401.51L468.708,486.825L421.873,533.661" style="fill:none;stroke:#0889d9;stroke-width:13.84px;"/>
        </g>
        <g transform="matrix(0.057543,0,0,0.062791,-7.474867,-18.537325)">
            <path d="M427.238,349.618L451.117,349.618L512.22,410.72L512.22,507.934L444.795,575.359" style="fill:none;stroke:#0889d9;stroke-width:13.84px;"/>
        </g>
        <g transform="matrix(0.057543,0,0,0.062791,-7.474867,-18.537325)">
            <path d="M491.147,426.373L491.147,484.915" style="fill:none;stroke:#0889d9;stroke-width:13.84px;"/>
        </g>
        <g transform="matrix(0.057543,0,0,0.062791,-7.474867,-18.537325)">
            <path d="M478.763,509.908L422.135,566.536L422.135,624.515" style="fill:none;stroke:#0889d9;stroke-width:13.84px;"/>
        </g>
        <g transform="matrix(0.025767,0,0,0.028117,2.113966,10.718068)">
            <circle cx="58.704" cy="119.6" r="5.583" style="fill:none;stroke:#0889d9;stroke-width:30.9px;"/>
        </g>
        <g transform="matrix(0.025767,0,0,0.028117,3.309008,10.938313)">
            <circle cx="58.704" cy="119.6" r="5.583" style="fill:none;stroke:#0889d9;stroke-width:30.9px;"/>
        </g>
        <g transform="matrix(0.025767,0,0,0.028117,9.689589,11.824652)">
            <circle cx="58.704" cy="119.6" r="5.583" style="fill:none;stroke:#0889d9;stroke-width:30.9px;"/>
        </g>
        <g transform="matrix(0.025767,0,0,0.028117,6.26265,9.334713)">
            <circle cx="58.704" cy="119.6" r="5.583" style="fill:none;stroke:#0889d9;stroke-width:30.9px;"/>
        </g>
        <g transform="matrix(0.025767,0,0,0.028117,8.454537,9.461827)">
            <circle cx="58.704" cy="119.6" r="5.583" style="fill:none;stroke:#0889d9;stroke-width:30.9px;"/>
        </g>
        <g transform="matrix(0.025767,0,0,0.028117,4.473487,8.000914)">
            <circle cx="58.704" cy="119.6" r="5.583" style="fill:none;stroke:#0889d9;stroke-width:30.9px;"/>
        </g>
        <g transform="matrix(0.025767,0,0,0.028117,9.597357,9.501004)">
            <circle cx="58.704" cy="119.6" r="5.583" style="fill:none;stroke:#0889d9;stroke-width:30.9px;"/>
        </g>
        <g transform="matrix(0.025767,0,0,0.028117,16.418444,8.373758)">
            <circle cx="58.704" cy="119.6" r="5.583" style="fill:none;stroke:#0889d9;stroke-width:30.9px;"/>
        </g>
        <g transform="matrix(0.060813,0,0,0.065658,2.691209,-14.7819)">
            <rect x="126.475" y="324.072" width="66.726" height="66.726" style="fill:none;stroke:#0889d9;stroke-width:13.17px;"/>
        </g>
        <g transform="matrix(0.025767,0,0,0.028117,3.28104,7.794052)">
            <circle cx="58.704" cy="119.6" r="5.583" style="fill:none;stroke:#0889d9;stroke-width:30.9px;"/>
        </g>
        <g transform="matrix(0.025767,0,0,0.028117,1.839624,4.892621)">
            <circle cx="58.704" cy="119.6" r="5.583" style="fill:none;stroke:#0889d9;stroke-width:30.9px;"/>
        </g>
        <g transform="matrix(0.025767,0,0,0.028117,4.741931,5.252744)">
            <circle cx="58.704" cy="119.6" r="5.583" style="fill:none;stroke:#0889d9;stroke-width:30.9px;"/>
        </g>
        <g transform="matrix(0.025767,0,0,0.028117,6.643547,5.350031)">
            <circle cx="58.704" cy="119.6" r="5.583" style="fill:none;stroke:#0889d9;stroke-width:30.9px;"/>
        </g>
        <g transform="matrix(0.025767,0,0,0.028117,6.643547,4.042263)">
            <circle cx="58.704" cy="119.6" r="5.583" style="fill:none;stroke:#0889d9;stroke-width:30.9px;"/>
        </g>
        <g transform="matrix(0.025767,0,0,0.028117,3.344077,3.000181)">
            <circle cx="58.704" cy="119.6" r="5.583" style="fill:none;stroke:#0889d9;stroke-width:30.9px;"/>
        </g>
        <g transform="matrix(0.025767,0,0,0.028117,3.544555,0.661035)">
            <circle cx="58.704" cy="119.6" r="5.583" style="fill:none;stroke:#0889d9;stroke-width:30.9px;"/>
        </g>
        <g transform="matrix(0.025767,0,0,0.028117,14.381842,-0.193447)">
            <circle cx="58.704" cy="119.6" r="5.583" style="fill:none;stroke:#0889d9;stroke-width:30.9px;"/>
        </g>
        <g transform="matrix(0.025767,0,0,0.028117,7.213544,0.560978)">
            <circle cx="58.704" cy="119.6" r="5.583" style="fill:none;stroke:#0889d9;stroke-width:30.9px;"/>
        </g>
        <g transform="matrix(0.025767,0,0,0.028117,9.475261,-0.099548)">
            <circle cx="58.704" cy="119.6" r="5.583" style="fill:none;stroke:#0889d9;stroke-width:30.9px;"/>
        </g>
        <g transform="matrix(0.025767,0,0,0.028117,12.089578,0.404001)">
            <circle cx="58.704" cy="119.6" r="5.583" style="fill:none;stroke:#0889d9;stroke-width:30.9px;"/>
        </g>
        <g transform="matrix(0.025767,0,0,0.028117,15.453343,0.052648)">
            <circle cx="58.704" cy="119.6" r="5.583" style="fill:none;stroke:#0889d9;stroke-width:30.9px;"/>
        </g>
        <g transform="matrix(0.025767,0,0,0.028117,13.510648,1.267636)">
            <circle cx="58.704" cy="119.6" r="5.583" style="fill:none;stroke:#0889d9;stroke-width:30.9px;"/>
        </g>
        <g transform="matrix(0.025767,0,0,0.028117,13.597965,2.616218)">
            <circle cx="58.704" cy="119.6" r="5.583" style="fill:none;stroke:#0889d9;stroke-width:30.9px;"/>
        </g>
        <g transform="matrix(0.025767,0,0,0.028117,15.741059,2.616218)">
            <circle cx="58.704" cy="119.6" r="5.583" style="fill:none;stroke:#0889d9;stroke-width:30.9px;"/>
        </g>
        <g transform="matrix(0.025767,0,0,0.028117,14.415269,6.697942)">
            <circle cx="58.704" cy="119.6" r="5.583" style="fill:none;stroke:#0889d9;stroke-width:30.9px;"/>
        </g>
        <g transform="matrix(0.025767,0,0,0.028117,13.172763,8.485429)">
            <circle cx="58.704" cy="119.6" r="5.583" style="fill:none;stroke:#0889d9;stroke-width:30.9px;"/>
        </g>
        <g transform="matrix(0.025767,0,0,0.028117,15.448849,9.542222)">
            <circle cx="58.704" cy="119.6" r="5.583" style="fill:none;stroke:#0889d9;stroke-width:30.9px;"/>
        </g>
        <g transform="matrix(0.025767,0,0,0.028117,14.066876,12.406346)">
            <circle cx="58.704" cy="119.6" r="5.583" style="fill:none;stroke:#0889d9;stroke-width:30.9px;"/>
        </g>
        <g transform="matrix(0.025767,0,0,0.028117,12.760971,16.243565)">
            <circle cx="58.704" cy="119.6" r="5.583" style="fill:none;stroke:#0889d9;stroke-width:30.9px;"/>
        </g>
        <g transform="matrix(0.025767,0,0,0.028117,11.991912,12.169372)">
            <circle cx="58.704" cy="119.6" r="5.583" style="fill:none;stroke:#0889d9;stroke-width:30.9px;"/>
        </g>
        <g transform="matrix(0.025767,0,0,0.028117,16.488831,14.30726)">
            <circle cx="58.704" cy="119.6" r="5.583" style="fill:none;stroke:#0889d9;stroke-width:30.9px;"/>
        </g>
        <g transform="matrix(0.025767,0,0,0.028117,18.651898,10.019418)">
            <circle cx="58.704" cy="119.6" r="5.583" style="fill:none;stroke:#0889d9;stroke-width:30.9px;"/>
        </g>
        <g transform="matrix(0.025767,0,0,0.028117,19.274729,8.705038)">
            <circle cx="58.704" cy="119.6" r="5.583" style="fill:none;stroke:#0889d9;stroke-width:30.9px;"/>
        </g>
        <g transform="matrix(0.025767,0,0,0.028117,19.274729,4.715195)">
            <circle cx="58.704" cy="119.6" r="5.583" style="fill:none;stroke:#0889d9;stroke-width:30.9px;"/>
        </g>
        <g transform="matrix(0.025767,0,0,0.028117,16.693026,5.53416)">
            <circle cx="58.704" cy="119.6" r="5.583" style="fill:none;stroke:#0889d9;stroke-width:30.9px;"/>
        </g>
        <g transform="matrix(0.025767,0,0,0.028117,13.968232,18.480247)">
            <circle cx="58.704" cy="119.6" r="5.583" style="fill:none;stroke:#0889d9;stroke-width:30.9px;"/>
        </g>
        <g transform="matrix(0.025767,0,0,0.028117,15.303548,17.470621)">
            <circle cx="58.704" cy="119.6" r="5.583" style="fill:none;stroke:#0889d9;stroke-width:30.9px;"/>
        </g>
    </g>
</svg>
