<?xml version="1.0" encoding="UTF-8" standalone="no"?>
<!DOCTYPE svg PUBLIC "-//W3C//DTD SVG 1.1//EN" "http://www.w3.org/Graphics/SVG/1.1/DTD/svg11.dtd">
<svg width="100%" height="100%" viewBox="0 0 18 23" version="1.1" xmlns="http://www.w3.org/2000/svg" xmlns:xlink="http://www.w3.org/1999/xlink" xml:space="preserve" xmlns:serif="http://www.serif.com/" style="fill-rule:evenodd;clip-rule:evenodd;stroke-linecap:round;stroke-linejoin:round;stroke-miterlimit:1.5;">
    <g transform="matrix(1,0,0,1,-3.458333,-0.958333)">
        <g transform="matrix(0.039809,0,0,0.036979,-8.643007,-6.784119)">
            <path d="M330.149,778.401L330.149,237.547L562.328,237.547L562.328,777.988" style="fill:none;stroke:#0889d9;stroke-width:54.23px;"/>
        </g>
        <g transform="matrix(0.016473,0,0,0.015302,1.334435,0.139958)">
            <path d="M357.104,319.421L528.16,319.421" style="fill:none;stroke:#0889d9;stroke-width:131.04px;"/>
        </g>
        <g transform="matrix(0.022319,0,0,0.024283,-0.753211,-0.41676)">
            <path d="M357.104,319.421L528.16,319.421" style="fill:none;stroke:#0889d9;stroke-width:89.33px;"/>
        </g>
        <g transform="matrix(0.008236,0,0,0.014887,4.275701,4.897012)">
            <path d="M357.104,319.421L528.16,319.421" style="fill:none;stroke:#0889d9;stroke-width:173.18px;"/>
        </g>
        <g transform="matrix(0.06222,0,0,0.057377,7.288023,-18.255811)">
            <path d="M60.217,538.618L89.077,590.841L196.271,486.396" style="fill:none;stroke:#0889d9;stroke-width:34.81px;"/>
        </g>
        <g transform="matrix(0.040741,-0.00158,-0.001701,0.039862,-7.843333,-8.139749)">
            <path d="M335.297,769.007L383.832,680.43" style="fill:none;stroke:#0889d9;stroke-width:53.88px;"/>
        </g>
        <g transform="matrix(0.01926,-0.032679,0.035249,0.019072,-24.739922,17.942899)">
            <path d="M330.149,778.401L383.832,680.43" style="fill:none;stroke:#0889d9;stroke-width:52.44px;"/>
        </g>
        <g transform="matrix(0.040088,-0.000473,-0.000509,0.037842,-3.7822,-7.302326)">
            <path d="M330.149,778.401L383.832,680.43" style="fill:none;stroke:#0889d9;stroke-width:54.13px;"/>
        </g>
        <g transform="matrix(0.018937,-0.033162,0.035838,0.019955,-20.395518,17.415705)">
            <path d="M330.369,778.001L383.832,680.43" style="fill:none;stroke:#0889d9;stroke-width:52.29px;"/>
        </g>
    </g>
</svg>
