<?xml version="1.0" encoding="UTF-8" standalone="no"?>
<!DOCTYPE svg PUBLIC "-//W3C//DTD SVG 1.1//EN" "http://www.w3.org/Graphics/SVG/1.1/DTD/svg11.dtd">
<svg width="100%" height="100%" viewBox="0 0 23 23" version="1.1" xmlns="http://www.w3.org/2000/svg" xmlns:xlink="http://www.w3.org/1999/xlink" xml:space="preserve" xmlns:serif="http://www.serif.com/" style="fill-rule:evenodd;clip-rule:evenodd;stroke-linecap:round;stroke-linejoin:round;stroke-miterlimit:1.5;">
    <g transform="matrix(1,0,0,1,-0.958333,-0.958333)">
        <g transform="matrix(0.079551,0,0,0.079537,-17.481578,-30.520042)">
            <path d="M366.36,439.231L366.36,499.964C366.36,516.724 352.756,530.331 335.999,530.331L275.255,530.331C258.499,530.331 244.894,516.724 244.894,499.964L244.894,439.231C244.894,422.472 258.499,408.865 275.255,408.865L335.999,408.865C352.756,408.865 366.36,422.472 366.36,439.231Z" style="fill:none;stroke:#0889d9;stroke-width:26.19px;"/>
        </g>
        <g transform="matrix(0.079551,0,0,0.079537,-7.144331,-30.520042)">
            <path d="M366.36,439.231L366.36,499.964C366.36,516.724 352.756,530.331 335.999,530.331L275.255,530.331C258.499,530.331 244.894,516.724 244.894,499.964L244.894,439.231C244.894,422.472 258.499,408.865 275.255,408.865L335.999,408.865C352.756,408.865 366.36,422.472 366.36,439.231Z" style="fill:none;stroke:#0889d9;stroke-width:26.19px;"/>
        </g>
        <g transform="matrix(0.079551,0,0,0.079537,-7.144331,-20.181142)">
            <path d="M366.36,439.231L366.36,499.964C366.36,516.724 352.756,530.331 335.999,530.331L275.255,530.331C258.499,530.331 244.894,516.724 244.894,499.964L244.894,439.231C244.894,422.472 258.499,408.865 275.255,408.865L335.999,408.865C352.756,408.865 366.36,422.472 366.36,439.231Z" style="fill:none;stroke:#0889d9;stroke-width:26.19px;"/>
        </g>
        <g transform="matrix(0.079551,0,0,0.079537,-17.481578,-20.181142)">
            <path d="M366.36,439.231L366.36,499.964C366.36,516.724 352.756,530.331 335.999,530.331L275.255,530.331C258.499,530.331 244.894,516.724 244.894,499.964L244.894,439.231C244.894,422.472 258.499,408.865 275.255,408.865L335.999,408.865C352.756,408.865 366.36,422.472 366.36,439.231Z" style="fill:none;stroke:#0889d9;stroke-width:26.19px;"/>
        </g>
    </g>
</svg>
