<?xml version="1.0" encoding="UTF-8" standalone="no"?>
<!DOCTYPE svg PUBLIC "-//W3C//DTD SVG 1.1//EN" "http://www.w3.org/Graphics/SVG/1.1/DTD/svg11.dtd">
<svg width="100%" height="100%" viewBox="0 0 15 23" version="1.1" xmlns="http://www.w3.org/2000/svg" xmlns:xlink="http://www.w3.org/1999/xlink" xml:space="preserve" xmlns:serif="http://www.serif.com/" style="fill-rule:evenodd;clip-rule:evenodd;stroke-linecap:round;stroke-linejoin:round;stroke-miterlimit:1.5;">
    <g transform="matrix(1,0,0,1,-4.958333,-0.958333)">
        <g transform="matrix(1.2,0,0,1.25,-1.8,-2.375)">
            <g transform="matrix(1.25,0,0,1.25,-7.25,-6.5)">
                <path d="M11,12C11,9.792 12.792,8 15,8C17.208,8 19,9.792 19,12" style="fill:none;stroke:#0889d9;stroke-width:1.36px;"/>
            </g>
            <g transform="matrix(1.25,0,0,1.25,-7.25,-6.5)">
                <path d="M11.147,13.078C11.051,12.735 11,12.374 11,12" style="fill:none;stroke:#0889d9;stroke-width:1.36px;"/>
            </g>
            <g transform="matrix(1,0,0,1,0,0.5)">
                <path d="M6.5,8C6.54,8.449 6.601,8.899 6.684,9.348" style="fill:none;stroke:#0889d9;stroke-width:1.7px;"/>
            </g>
            <g transform="matrix(1,0,0,1,0,0.5)">
                <path d="M6.684,9.348C7.278,12.565 8.968,15.783 11.5,19C14.442,16.086 16.259,12.631 16.483,8.412" style="fill:none;stroke:#0889d9;stroke-width:1.7px;"/>
            </g>
            <g transform="matrix(1,0,0,1,0,0.5)">
                <path d="M16.483,8.412C16.492,8.276 16.498,8.138 16.5,8" style="fill:none;stroke:#0889d9;stroke-width:1.7px;"/>
            </g>
        </g>
        <g transform="matrix(1.2,0,0,1.25,-3.6,-3)">
            <circle cx="13" cy="9" r="2" style="fill:none;stroke:#0889d9;stroke-width:1.7px;"/>
        </g>
    </g>
</svg>
