<?xml version="1.0" encoding="UTF-8" standalone="no"?>
<!DOCTYPE svg PUBLIC "-//W3C//DTD SVG 1.1//EN" "http://www.w3.org/Graphics/SVG/1.1/DTD/svg11.dtd">
<svg width="100%" height="100%" viewBox="0 0 23 23" version="1.1" xmlns="http://www.w3.org/2000/svg" xmlns:xlink="http://www.w3.org/1999/xlink" xml:space="preserve" xmlns:serif="http://www.serif.com/" style="fill-rule:evenodd;clip-rule:evenodd;stroke-linecap:round;stroke-linejoin:round;stroke-miterlimit:1.5;">
    <g transform="matrix(1,0,0,1,-0.958333,-0.958333)">
        <g transform="matrix(0.081765,0,0,0.085902,-28.376341,-26.539567)">
            <circle cx="490.83" cy="381.955" r="49.721" style="fill:none;stroke:#0889d9;stroke-width:24.84px;"/>
        </g>
        <g transform="matrix(0,0.085902,-0.081765,0,69.328135,-13.541525)">
            <path d="M328.299,654.397C314.872,672.629 307.629,694.679 307.629,717.322C307.629,775.928 355.139,823.438 413.745,823.438C355.139,823.438 307.629,775.928 307.629,717.322C307.629,694.679 314.872,672.629 328.299,654.397Z" style="fill:none;stroke:#0889d9;stroke-width:24.84px;"/>
        </g>
        <g transform="matrix(0.081765,0,0,0.085902,-29.455684,-28.034357)">
            <path d="M525.201,525.779L557.236,565.058L629.314,493.744" style="fill:none;stroke:#0889d9;stroke-width:24.84px;"/>
        </g>
    </g>
</svg>
