<?xml version="1.0" encoding="UTF-8" standalone="no"?>
<!DOCTYPE svg PUBLIC "-//W3C//DTD SVG 1.1//EN" "http://www.w3.org/Graphics/SVG/1.1/DTD/svg11.dtd">
<svg width="100%" height="100%" viewBox="0 0 23 23" version="1.1" xmlns="http://www.w3.org/2000/svg" xmlns:xlink="http://www.w3.org/1999/xlink" xml:space="preserve" xmlns:serif="http://www.serif.com/" style="fill-rule:evenodd;clip-rule:evenodd;stroke-linecap:round;stroke-linejoin:round;stroke-miterlimit:1.5;">
    <g transform="matrix(1,0,0,1,-0.958333,-0.958333)">
        <g transform="matrix(0.112429,0,0,0.110151,-45.819904,-44.483665)">
            <path d="M451.501,422.638C459.494,427.356 480.613,449.374 485.589,456.726C487.622,459.73 483.166,463.606 481.361,466.751C478.375,471.951 466.869,479.597 467.679,487.925C468.488,496.253 481.053,509.2 486.219,516.719C490.095,522.361 494.19,527.873 498.675,533.043C503.243,538.31 509.185,544.45 513.629,548.32C517.187,551.419 521.253,554.488 525.342,556.267C529.35,558.009 534.256,560.943 538.166,558.99C543.134,556.509 550.531,543.883 555.154,541.38C558.393,539.625 562.803,541.971 565.898,543.968C572.985,548.541 591.463,562.997 597.676,568.812C600.463,571.421 603.659,575.072 603.176,578.86C602.598,583.385 597.629,592.403 594.209,595.967C591.365,598.931 586.58,599.04 582.654,600.244C578.609,601.485 573.636,602.316 569.11,602.855C564.6,603.392 560.033,603.746 555.499,603.478C550.727,603.197 545.359,602.521 540.477,601.167C534.575,599.53 526.437,597.143 520.089,593.656C513.252,589.901 505.938,584.144 499.456,578.634C491.298,571.701 479.069,560.055 471.145,552.057C464.394,545.243 457.654,538.335 451.914,530.65C445.304,521.799 435.753,507.628 431.482,498.952C428.389,492.668 427.203,485.535 426.29,478.591C425.332,471.311 424.999,461.996 425.734,455.27C426.377,449.391 428.718,442.713 430.702,438.238C432.325,434.574 434.429,430.82 437.635,428.416C441.101,425.816 447.189,420.092 451.501,422.638Z" style="fill:none;stroke:#0889d9;stroke-width:18.72px;"/>
        </g>
    </g>
</svg>
