<?xml version="1.0" encoding="UTF-8" standalone="no"?>
<!DOCTYPE svg PUBLIC "-//W3C//DTD SVG 1.1//EN" "http://www.w3.org/Graphics/SVG/1.1/DTD/svg11.dtd">
<svg width="100%" height="100%" viewBox="0 0 22 23" version="1.1" xmlns="http://www.w3.org/2000/svg" xmlns:xlink="http://www.w3.org/1999/xlink" xml:space="preserve" xmlns:serif="http://www.serif.com/" style="fill-rule:evenodd;clip-rule:evenodd;stroke-linecap:round;stroke-linejoin:round;stroke-miterlimit:1.5;">
    <g transform="matrix(1,0,0,1,-1.425014,-0.958451)">
        <g transform="matrix(0.064971,0,0,0.06815,-16.838466,-31.083024)">
            <path d="M297.137,778.91L355.83,778.91" style="fill:none;stroke:#0889d9;stroke-width:31.29px;"/>
        </g>
        <g transform="matrix(0,-0.06815,0.064971,0,-44.326216,42.249828)">
            <path d="M297.137,778.91L355.83,778.91" style="fill:none;stroke:#0889d9;stroke-width:31.29px;"/>
        </g>
        <g transform="matrix(0.064971,0,0,0.06815,-13.025138,-35.082977)">
            <path d="M297.137,778.91L355.83,778.91" style="fill:none;stroke:#0889d9;stroke-width:31.29px;"/>
        </g>
        <g transform="matrix(0,-0.06815,0.064971,0,-40.512888,38.249876)">
            <path d="M297.137,778.91L355.83,778.91" style="fill:none;stroke:#0889d9;stroke-width:31.29px;"/>
        </g>
        <g transform="matrix(0.064971,0,0,0.06815,-9.211811,-39.08293)">
            <path d="M297.137,778.91L355.83,778.91" style="fill:none;stroke:#0889d9;stroke-width:31.29px;"/>
        </g>
        <g transform="matrix(0,-0.06815,0.064971,0,-36.69956,34.249923)">
            <path d="M297.137,778.91L355.83,778.91" style="fill:none;stroke:#0889d9;stroke-width:31.29px;"/>
        </g>
        <g transform="matrix(0.064971,0,0,0.06815,-5.398483,-43.082883)">
            <path d="M297.137,778.91L355.83,778.91" style="fill:none;stroke:#0889d9;stroke-width:31.29px;"/>
        </g>
        <g transform="matrix(0,-0.06815,0.064971,0,-32.886233,30.24997)">
            <path d="M297.137,778.91L355.83,778.91" style="fill:none;stroke:#0889d9;stroke-width:31.29px;"/>
        </g>
        <g transform="matrix(0.064971,0,0,0.06815,-1.585156,-47.082836)">
            <path d="M297.137,778.91L355.83,778.91" style="fill:none;stroke:#0889d9;stroke-width:31.29px;"/>
        </g>
        <g transform="matrix(0,-0.06815,0.064971,0,-29.072905,26.250017)">
            <path d="M297.137,778.91L355.83,778.91" style="fill:none;stroke:#0889d9;stroke-width:31.29px;"/>
        </g>
    </g>
</svg>
