<?xml version="1.0" encoding="UTF-8" standalone="no"?>
<!DOCTYPE svg PUBLIC "-//W3C//DTD SVG 1.1//EN" "http://www.w3.org/Graphics/SVG/1.1/DTD/svg11.dtd">
<svg width="100%" height="100%" viewBox="0 0 742 872" version="1.1" xmlns="http://www.w3.org/2000/svg" xmlns:xlink="http://www.w3.org/1999/xlink" xml:space="preserve" xmlns:serif="http://www.serif.com/" style="fill-rule:evenodd;clip-rule:evenodd;stroke-linecap:round;stroke-linejoin:round;stroke-miterlimit:1.5;">
    <g transform="matrix(1,0,0,1,-141.452119,-76.074535)">
        <g transform="matrix(3.083951,0,0,3.083951,-640.60994,-403.57089)">
            <path d="M318.6,173.1L318.6,204.7C318.6,213.5 311.5,220.6 302.8,220.6L271.1,220.6C262.4,220.6 255.3,213.5 255.3,204.7L255.3,173.1C255.3,164.3 262.4,157.2 271.1,157.2L302.8,157.2C311.5,157.2 318.6,164.3 318.6,173.1Z" style="fill:none;stroke:#8a63ff;stroke-width:3.4px;"/>
        </g>
        <g transform="matrix(3.083951,0,0,3.083951,-640.60994,-70.560847)">
            <path d="M318.6,173.1L318.6,204.7C318.6,213.5 311.5,220.6 302.8,220.6L271.1,220.6C262.4,220.6 255.3,213.5 255.3,204.7L255.3,173.1C255.3,164.3 262.4,157.2 271.1,157.2L302.8,157.2C311.5,157.2 318.6,164.3 318.6,173.1Z" style="fill:#8a63ff;stroke:#8a63ff;stroke-width:3.4px;"/>
        </g>
        <g transform="matrix(3.083951,0,0,3.083951,-640.60994,-403.57089)">
            <path d="M337.9,188.9L492.2,188.9" style="fill:none;stroke:#8a63ff;stroke-width:3.4px;"/>
        </g>
        <g transform="matrix(3.083951,0,0,3.083951,-640.60994,-70.560847)">
            <path d="M337.9,188.9L492.2,188.9" style="fill:none;stroke:#8a63ff;stroke-width:3.4px;"/>
        </g>
        <g transform="matrix(3.083951,0,0,3.083951,-640.60994,262.449196)">
            <path d="M337.9,188.9L492.2,188.9" style="fill:none;stroke:#8a63ff;stroke-width:3.4px;"/>
        </g>
        <g transform="matrix(3.083951,0,0,3.083951,-640.60994,262.449196)">
            <path d="M318.6,173.1L318.6,204.7C318.6,213.5 311.5,220.6 302.8,220.6L271.1,220.6C262.4,220.6 255.3,213.5 255.3,204.7L255.3,173.1C255.3,164.3 262.4,157.2 271.1,157.2L302.8,157.2C311.5,157.2 318.6,164.3 318.6,173.1Z" style="fill:none;stroke:#8a63ff;stroke-width:3.4px;"/>
        </g>
    </g>
</svg>
