<?xml version="1.0" encoding="UTF-8" standalone="no"?>
<!DOCTYPE svg PUBLIC "-//W3C//DTD SVG 1.1//EN" "http://www.w3.org/Graphics/SVG/1.1/DTD/svg11.dtd">
<svg width="100%" height="100%" viewBox="0 0 23 23" version="1.1" xmlns="http://www.w3.org/2000/svg" xmlns:xlink="http://www.w3.org/1999/xlink" xml:space="preserve" xmlns:serif="http://www.serif.com/" style="fill-rule:evenodd;clip-rule:evenodd;stroke-linecap:round;stroke-linejoin:round;stroke-miterlimit:1.5;">
    <g transform="matrix(1,0,0,1,-0.958333,-0.958333)">
        <g transform="matrix(0.123453,0,0,0.1,-41.20771,-17.065911)">
            <path d="M349.994,190.659L512,190.659" style="fill:none;stroke:#0a2472;stroke-width:18.54px;"/>
        </g>
        <g transform="matrix(0.123453,0,0,0.1,-41.20771,2.934089)">
            <path d="M349.994,190.659L512,190.659" style="fill:none;stroke:#0a2472;stroke-width:18.54px;"/>
        </g>
        <g transform="matrix(0.123453,0,0,0.1,-41.20771,-17.065911)">
            <path d="M349.994,190.659C349.994,190.659 410.932,259.025 410.932,292.359C410.932,325.692 349.994,390.659 349.994,390.659" style="fill:none;stroke:#0a2472;stroke-width:18.54px;"/>
        </g>
        <g transform="matrix(-0.123453,-0,0,-0.1,65.20771,41.065911)">
            <path d="M349.994,190.659C349.994,190.659 410.932,259.025 410.932,292.359C410.932,325.692 349.994,390.659 349.994,390.659" style="fill:none;stroke:#0a2472;stroke-width:18.54px;"/>
        </g>
    </g>
</svg>
