<?xml version="1.0" encoding="UTF-8" standalone="no"?>
<!DOCTYPE svg PUBLIC "-//W3C//DTD SVG 1.1//EN" "http://www.w3.org/Graphics/SVG/1.1/DTD/svg11.dtd">
<svg width="100%" height="100%" viewBox="0 0 22 22" version="1.1" xmlns="http://www.w3.org/2000/svg" xmlns:xlink="http://www.w3.org/1999/xlink" xml:space="preserve" xmlns:serif="http://www.serif.com/" style="fill-rule:evenodd;clip-rule:evenodd;stroke-linecap:round;stroke-linejoin:round;stroke-miterlimit:1.5;">
    <g transform="matrix(1,0,0,1,-1.375,-1.375)">
        <g transform="matrix(0.034808,0,0,0.034808,-7.198391,-6.249537)">
            <path d="M579.329,238.345L588.481,282.901C606.194,285.611 623.554,290.263 640.248,296.772L670.452,262.761C687.354,270.446 703.471,279.751 718.577,290.546L704.225,333.709C718.209,344.912 730.917,357.621 742.121,371.605L785.283,357.253C796.078,372.359 805.383,388.476 813.068,405.377L779.058,435.581C785.567,452.276 790.218,469.636 792.928,487.348L837.484,496.5C839.28,514.98 839.28,533.59 837.484,552.07L792.928,561.222C790.218,578.934 785.567,596.294 779.058,612.989L813.068,643.193C805.383,660.095 796.078,676.211 785.283,691.317L742.121,676.965C730.917,690.95 718.209,703.658 704.225,714.861L718.577,758.024C703.471,768.819 687.354,778.124 670.452,785.809L640.248,751.798C623.554,758.307 606.194,762.959 588.481,765.669L579.329,810.225C560.85,812.021 542.239,812.021 523.76,810.225L514.607,765.669C496.895,762.959 479.535,758.307 462.841,751.798L432.637,785.809C415.735,778.124 399.618,768.819 384.512,758.024L398.864,714.861C384.88,703.658 372.172,690.95 360.968,676.965L317.805,691.317C307.011,676.211 297.705,660.095 290.021,643.193L324.031,612.989C317.522,596.294 312.871,578.934 310.16,561.222L265.604,552.07C263.809,533.59 263.809,514.98 265.604,496.5L310.16,487.348C312.871,469.636 317.522,452.276 324.031,435.581L290.021,405.377C297.705,388.476 307.011,372.359 317.805,357.253L360.968,371.605C372.172,357.621 384.88,344.912 398.864,333.709L384.512,290.546C399.618,279.751 415.735,270.446 432.637,262.761L462.841,296.772C479.535,290.263 496.895,285.611 514.607,282.901L523.76,238.345C542.239,236.549 560.85,236.549 579.329,238.345ZM551.544,466.828C583.256,466.828 609.002,492.574 609.002,524.285C609.002,555.997 583.256,581.742 551.544,581.742C519.833,581.742 494.087,555.997 494.087,524.285C494.087,492.574 519.833,466.828 551.544,466.828Z" style="fill:none;stroke:#0a2472;stroke-width:35.91px;"/>
        </g>
    </g>
</svg>
