<?xml version="1.0" encoding="UTF-8" standalone="no"?>
<!DOCTYPE svg PUBLIC "-//W3C//DTD SVG 1.1//EN" "http://www.w3.org/Graphics/SVG/1.1/DTD/svg11.dtd">
<svg width="100%" height="100%" viewBox="0 0 23 23" version="1.1" xmlns="http://www.w3.org/2000/svg" xmlns:xlink="http://www.w3.org/1999/xlink" xml:space="preserve" xmlns:serif="http://www.serif.com/" style="fill-rule:evenodd;clip-rule:evenodd;stroke-linecap:round;stroke-linejoin:round;stroke-miterlimit:1.5;">
    <g transform="matrix(1,0,0,1,-0.958333,-0.958333)">
        <g transform="matrix(1.25,0,0,1.25,-5.5,-4.25)">
            <circle cx="14" cy="13" r="8" style="fill:none;stroke:#0a2472;stroke-width:1.67px;"/>
        </g>
        <g transform="matrix(-0.883883,0.883883,-0.883883,-0.883883,32.771262,11.558058)">
            <path d="M17,11.25L17,11.75C17,11.888 16.888,12 16.75,12L7.25,12C7.112,12 7,11.888 7,11.75L7,11.25C7,11.112 7.112,11 7.25,11L16.75,11C16.888,11 17,11.112 17,11.25Z" style="fill:none;stroke:#0a2472;stroke-width:1.67px;"/>
        </g>
        <g transform="matrix(-0.883883,-0.883883,0.883883,-0.883883,12.441942,32.771262)">
            <path d="M17,11.25L17,11.75C17,11.888 16.888,12 16.75,12L7.25,12C7.112,12 7,11.888 7,11.75L7,11.25C7,11.112 7.112,11 7.25,11L16.75,11C16.888,11 17,11.112 17,11.25Z" style="fill:none;stroke:#0a2472;stroke-width:1.67px;"/>
        </g>
    </g>
</svg>
