<?xml version="1.0" encoding="UTF-8" standalone="no"?>
<!DOCTYPE svg PUBLIC "-//W3C//DTD SVG 1.1//EN" "http://www.w3.org/Graphics/SVG/1.1/DTD/svg11.dtd">
<svg width="100%" height="100%" viewBox="0 0 22 22" version="1.1" xmlns="http://www.w3.org/2000/svg" xmlns:xlink="http://www.w3.org/1999/xlink" xml:space="preserve" xmlns:serif="http://www.serif.com/" style="fill-rule:evenodd;clip-rule:evenodd;stroke-linecap:round;stroke-linejoin:round;stroke-miterlimit:1.5;">
    <g transform="matrix(1,0,0,1,-1,-1)">
        <g transform="matrix(1.666667,0,0,1.666667,-8,-8)">
            <circle cx="12" cy="12" r="6" style="fill:none;stroke:#0a2472;stroke-width:1.2px;"/>
        </g>
        <g transform="matrix(1.666667,0,0,1.388889,-8,-4.666667)">
            <path d="M12,6C8.099,10.398 8.016,14.407 12,18" style="fill:none;stroke:#0a2472;stroke-width:1.3px;"/>
        </g>
        <g transform="matrix(-1.666667,0,-0,-1.388889,32,28.666667)">
            <path d="M12,6C8.099,10.398 8.016,14.407 12,18" style="fill:none;stroke:#0a2472;stroke-width:1.3px;"/>
        </g>
        <g transform="matrix(0,-0.652067,1.138889,0,-1.666667,13.360777)">
            <path d="M12,6C8.099,10.398 8.016,14.407 12,18" style="fill:none;stroke:#0a2472;stroke-width:2.16px;"/>
        </g>
        <g transform="matrix(0,0.652067,-1.138889,0,25.666667,10.639223)">
            <path d="M12,6C8.099,10.398 8.016,14.407 12,18" style="fill:none;stroke:#0a2472;stroke-width:2.16px;"/>
        </g>
        <path d="M2,12L22,12" style="fill:none;stroke:#0a2472;stroke-width:2px;"/>
    </g>
</svg>
