<?xml version="1.0" encoding="UTF-8" standalone="no"?>
<!DOCTYPE svg PUBLIC "-//W3C//DTD SVG 1.1//EN" "http://www.w3.org/Graphics/SVG/1.1/DTD/svg11.dtd">
<svg width="100%" height="100%" viewBox="0 0 23 23" version="1.1" xmlns="http://www.w3.org/2000/svg" xmlns:xlink="http://www.w3.org/1999/xlink" xml:space="preserve" xmlns:serif="http://www.serif.com/" style="fill-rule:evenodd;clip-rule:evenodd;stroke-linecap:round;stroke-linejoin:round;stroke-miterlimit:1.5;">
    <g transform="matrix(1,0,0,1,-0.958333,-0.958333)">
        <g transform="matrix(1.25,0,0,1.25,-3,-1.75)">
            <circle cx="6" cy="5" r="2" style="fill:none;stroke:#0a2472;stroke-width:1.67px;"/>
        </g>
        <g transform="matrix(1.25,0,0,1.25,-3,5.75)">
            <circle cx="6" cy="5" r="2" style="fill:none;stroke:#0a2472;stroke-width:1.67px;"/>
        </g>
        <g transform="matrix(1.25,0,0,1.25,-3,13.25)">
            <circle cx="6" cy="5" r="2" style="fill:none;stroke:#0a2472;stroke-width:1.67px;"/>
        </g>
        <g transform="matrix(1.25,0,0,1.25,-1.75,-3)">
            <path d="M19,5.5L19,6.5C19,6.776 18.776,7 18.5,7L9.5,7C9.224,7 9,6.776 9,6.5L9,5.5C9,5.224 9.224,5 9.5,5L18.5,5C18.776,5 19,5.224 19,5.5Z" style="fill:none;stroke:#0a2472;stroke-width:1.67px;"/>
        </g>
        <g transform="matrix(1.25,0,0,1.25,-1.75,4.5)">
            <path d="M19,5.5L19,6.5C19,6.776 18.776,7 18.5,7L9.5,7C9.224,7 9,6.776 9,6.5L9,5.5C9,5.224 9.224,5 9.5,5L18.5,5C18.776,5 19,5.224 19,5.5Z" style="fill:none;stroke:#0a2472;stroke-width:1.67px;"/>
        </g>
        <g transform="matrix(1.25,0,0,1.25,-1.75,12)">
            <path d="M19,5.5L19,6.5C19,6.776 18.776,7 18.5,7L9.5,7C9.224,7 9,6.776 9,6.5L9,5.5C9,5.224 9.224,5 9.5,5L18.5,5C18.776,5 19,5.224 19,5.5Z" style="fill:none;stroke:#0a2472;stroke-width:1.67px;"/>
        </g>
    </g>
</svg>
