<?xml version="1.0" encoding="UTF-8" standalone="no"?>
<!DOCTYPE svg PUBLIC "-//W3C//DTD SVG 1.1//EN" "http://www.w3.org/Graphics/SVG/1.1/DTD/svg11.dtd">
<svg width="100%" height="100%" viewBox="0 0 18 23" version="1.1" xmlns="http://www.w3.org/2000/svg" xmlns:xlink="http://www.w3.org/1999/xlink" xml:space="preserve" xmlns:serif="http://www.serif.com/" style="fill-rule:evenodd;clip-rule:evenodd;stroke-linecap:round;stroke-linejoin:round;stroke-miterlimit:1.5;">
    <g transform="matrix(1,0,0,1,-3.458333,-0.958333)">
        <g transform="matrix(0.066458,0,0,0.058347,-24.876165,-13.728609)">
            <path d="M469.477,354.977C469.477,307.841 507.745,269.572 554.882,269.572C602.018,269.572 640.286,307.841 640.286,354.977" style="fill:none;stroke:#0a2472;stroke-width:33.32px;"/>
        </g>
        <g transform="matrix(0.066458,0,0,0.058347,-22.026356,-13.085631)">
            <path d="M426.595,487.217L399.146,514.665" style="fill:none;stroke:#0a2472;stroke-width:33.32px;"/>
        </g>
        <g transform="matrix(-0,-0.058347,0.066458,-0,-14.703495,40.232183)">
            <path d="M426.595,487.217L399.146,514.665" style="fill:none;stroke:#0a2472;stroke-width:33.32px;"/>
        </g>
        <g transform="matrix(0.066458,0,0,0.058347,-22.026356,-13.085631)">
            <path d="M399.146,514.665L624.854,514.665" style="fill:none;stroke:#0a2472;stroke-width:33.32px;"/>
        </g>
        <g transform="matrix(0.036339,-0.031904,0.036339,0.031904,-12.875798,4.341535)">
            <path d="M65.52,532.57C54.056,544.034 47.615,559.583 47.615,575.795C47.615,609.534 75.007,636.925 108.745,636.925C124.958,636.925 140.506,630.485 151.97,619.021C140.506,630.485 124.958,636.925 108.745,636.925C75.007,636.925 47.615,609.534 47.615,575.795C47.615,559.583 54.056,544.034 65.52,532.57Z" style="fill:none;stroke:#0a2472;stroke-width:40.54px;"/>
        </g>
        <g transform="matrix(0.066458,0,0,0.058347,-22.026356,-13.085631)">
            <path d="M426.595,343.957L426.595,487.217" style="fill:none;stroke:#0a2472;stroke-width:33.32px;"/>
        </g>
        <g transform="matrix(0.066458,0,0,0.058347,-22.026356,-13.085631)">
            <path d="M597.405,343.957L597.405,487.217" style="fill:none;stroke:#0a2472;stroke-width:33.32px;"/>
        </g>
    </g>
</svg>
