<?xml version="1.0" encoding="UTF-8" standalone="no"?>
<!DOCTYPE svg PUBLIC "-//W3C//DTD SVG 1.1//EN" "http://www.w3.org/Graphics/SVG/1.1/DTD/svg11.dtd">
<svg width="100%" height="100%" viewBox="0 0 23 23" version="1.1" xmlns="http://www.w3.org/2000/svg" xmlns:xlink="http://www.w3.org/1999/xlink" xml:space="preserve" xmlns:serif="http://www.serif.com/" style="fill-rule:evenodd;clip-rule:evenodd;stroke-linecap:round;stroke-linejoin:round;stroke-miterlimit:1.5;">
    <g transform="matrix(1,0,0,1,-0.958333,-0.958333)">
        <g transform="matrix(0.086359,0,0,0.086359,-27.812907,-26.53374)">
            <path d="M461.016,380.409C497.33,380.409 526.812,409.891 526.812,446.204" style="fill:none;stroke:#0a2472;stroke-width:24.12px;"/>
        </g>
        <g transform="matrix(0.086359,0,0,0.086359,-27.812907,-26.53374)">
            <path d="M526.812,446.204C526.812,482.518 497.33,512 461.016,512" style="fill:none;stroke:#0a2472;stroke-width:24.12px;"/>
        </g>
        <g transform="matrix(0.086359,0,0,0.086359,-27.812907,-26.53374)">
            <path d="M461.016,512C424.703,512 395.221,482.518 395.221,446.204" style="fill:none;stroke:#0a2472;stroke-width:24.12px;"/>
        </g>
        <g transform="matrix(0.086359,0,0,0.086359,-27.812907,-26.53374)">
            <path d="M395.221,446.204C395.221,409.891 424.703,380.409 461.016,380.409" style="fill:none;stroke:#0a2472;stroke-width:24.12px;"/>
        </g>
        <g transform="matrix(0.071626,0,0,0.086359,-20.051223,-26.53374)">
            <path d="M526.812,446.204L587.097,446.204" style="fill:none;stroke:#0a2472;stroke-width:26.26px;"/>
        </g>
        <g transform="matrix(0.086359,0,0,0.069944,-27.812907,-20.28944)">
            <path d="M461.016,318.674L461.016,380.409" style="fill:none;stroke:#0a2472;stroke-width:26.51px;"/>
        </g>
        <g transform="matrix(0.086359,0,0,0.052674,-27.812907,-9.286917)">
            <path d="M461.016,512L461.016,593.975" style="fill:none;stroke:#0a2472;stroke-width:29.13px;"/>
        </g>
        <g transform="matrix(0.086359,0,0,0.086359,-5.624785,-35.454252)">
            <circle cx="204.087" cy="549.5" r="12.5" style="fill:#8a63ff;stroke:#0a2472;stroke-width:24.12px;"/>
        </g>
        <g transform="matrix(0.060185,0,0,0.086359,-17.468248,-26.53374)">
            <path d="M323.476,446.204L395.221,446.204" style="fill:none;stroke:#0a2472;stroke-width:27.99px;"/>
        </g>
    </g>
</svg>
